<?xml version="1.0" encoding="iso-8859-1"?>
<!-- Uploaded to: SVG Repo, www.svgrepo.com, Generator: SVG Repo Mixer Tools -->
<svg height="800px" width="800px" version="1.1" id="Layer_1" xmlns="http://www.w3.org/2000/svg" xmlns:xlink="http://www.w3.org/1999/xlink" 
	 viewBox="0 0 511.984 511.984" xml:space="preserve">
<path style="fill:#CCD1D9;" d="M351.989,10.672c-46.123,0-87.669,19.515-116.871,50.733c-15.64-18.016-38.718-29.406-64.451-29.406
	c-47.132,0-85.333,38.202-85.333,85.325c0,0.719,0.008,1.422,0.031,2.141C36.663,129.34,0,172.385,0,223.993
	c0,58.904,47.757,106.668,106.669,106.668h245.32c88.372,0,159.995-71.638,159.995-159.995
	C511.984,82.294,440.361,10.672,351.989,10.672z"/>
<path style="fill:#AAB2BC;" d="M453.954,47.358c22.922,27.687,36.703,63.217,36.703,101.966
	c0,88.372-71.638,159.995-159.995,159.995H85.334c-24.016,0-46.171-7.937-63.998-21.327c19.46,25.905,50.436,42.67,85.333,42.67
	h245.32c88.372,0,159.995-71.638,159.995-159.995C511.984,121.043,489.407,76.717,453.954,47.358z"/>
<path style="fill:#E6E9ED;" d="M192.002,426.659c0,5.891-4.781,10.656-10.672,10.656c-5.89,0-10.663-4.766-10.663-10.656
	s4.773-10.672,10.663-10.672C187.221,415.987,192.002,420.768,192.002,426.659z"/>
<path style="fill:#CCD1D9;" d="M256,426.659c0,5.891-4.781,10.656-10.672,10.656c-5.89,0-10.663-4.766-10.663-10.656
	s4.773-10.672,10.663-10.672C251.219,415.987,256,420.768,256,426.659z"/>
<path style="fill:#E6E9ED;" d="M287.991,362.66c0,5.891-4.781,10.656-10.655,10.656c-5.898,0-10.672-4.766-10.672-10.656
	s4.773-10.671,10.672-10.671C283.21,351.989,287.991,356.77,287.991,362.66z"/>
<g>
	<path style="fill:#CCD1D9;" d="M223.891,362.66c0,5.891-4.78,10.656-10.671,10.656c-5.891,0-10.664-4.766-10.664-10.656
		s4.773-10.671,10.664-10.671C219.111,351.989,223.891,356.77,223.891,362.66z"/>
	<path style="fill:#CCD1D9;" d="M160.003,490.656c0,5.891-4.78,10.656-10.671,10.656c-5.891,0-10.664-4.766-10.664-10.656
		s4.773-10.672,10.664-10.672C155.223,479.984,160.003,484.765,160.003,490.656z"/>
	<path style="fill:#CCD1D9;" d="M128.105,426.659c0,5.891-4.773,10.656-10.663,10.656c-5.891,0-10.664-4.766-10.664-10.656
		s4.773-10.672,10.664-10.672C123.332,415.987,128.105,420.768,128.105,426.659z"/>
</g>
<g>
	<path style="fill:#E6E9ED;" d="M160.003,362.66c0,5.891-4.78,10.656-10.671,10.656c-5.891,0-10.664-4.766-10.664-10.656
		s4.773-10.671,10.664-10.671C155.223,351.989,160.003,356.77,160.003,362.66z"/>
	<path style="fill:#E6E9ED;" d="M96.107,490.656c0,5.891-4.773,10.656-10.664,10.656s-10.664-4.766-10.664-10.656
		s4.773-10.672,10.664-10.672S96.107,484.765,96.107,490.656z"/>
	<path style="fill:#E6E9ED;" d="M224.001,490.656c0,5.891-4.78,10.656-10.671,10.656c-5.891,0-10.664-4.766-10.664-10.656
		s4.773-10.672,10.664-10.672C219.221,479.984,224.001,484.765,224.001,490.656z"/>
	<path style="fill:#E6E9ED;" d="M319.991,426.659c0,5.891-4.781,10.656-10.656,10.656c-5.906,0-10.672-4.766-10.672-10.656
		s4.766-10.672,10.672-10.672C315.21,415.987,319.991,420.768,319.991,426.659z"/>
</g>
<g>
	<path style="fill:#CCD1D9;" d="M351.989,362.66c0,5.891-4.781,10.656-10.656,10.656c-5.905,0-10.671-4.766-10.671-10.656
		s4.766-10.671,10.671-10.671C347.208,351.989,351.989,356.77,351.989,362.66z"/>
	<path style="fill:#CCD1D9;" d="M287.991,490.656c0,5.891-4.781,10.656-10.655,10.656c-5.898,0-10.672-4.766-10.672-10.656
		s4.773-10.672,10.672-10.672C283.21,479.984,287.991,484.765,287.991,490.656z"/>
</g>
</svg>